<?xml version="1.0" encoding="UTF-8" standalone="no"?>
<!-- Generator: Adobe Illustrator 14.0.0, SVG Export Plug-In . SVG Version: 6.00 Build 43363)  -->
<!DOCTYPE svg  PUBLIC '-//W3C//DTD SVG 1.1//EN'  'http://www.w3.org/Graphics/SVG/1.1/DTD/svg11.dtd'>
<svg id="Layer_1" xmlns="http://www.w3.org/2000/svg" xml:space="preserve" height="46.727px" viewBox="0 0 179.865 46.727" width="179.86px" version="1.1" y="0px" x="0px" xmlns:xlink="http://www.w3.org/1999/xlink" enable-background="new 0 0 179.865 46.727">
		<g fill="#76AEDB">
			<path d="m1.838 44.294l-0.804 2.433h-1.034l2.643-7.732h1.196l2.643 7.732h-1.069l-0.828-2.433h-2.747zm2.552-0.78l-0.77-2.224c-0.172-0.504-0.287-0.964-0.402-1.41h-0.023c-0.115 0.446-0.23 0.929-0.391 1.398l-0.758 2.236h2.344z"/>
			<path d="m8.074 42.444c0-0.619-0.012-1.104-0.048-1.589h0.938l0.061 0.97h0.023c0.289-0.546 0.962-1.091 1.925-1.091 0.806 0 2.057 0.485 2.057 2.499v3.494h-1.059v-3.385c0-0.947-0.349-1.734-1.348-1.734-0.685 0-1.227 0.496-1.419 1.091-0.048 0.134-0.072 0.315-0.072 0.497v3.531h-1.06v-4.283z"/>
			<path d="m21.091 42.444c0-0.619-0.013-1.104-0.048-1.589h0.938l0.061 0.97h0.024c0.289-0.546 0.962-1.091 1.925-1.091 0.806 0 2.057 0.485 2.057 2.499v3.494h-1.059v-3.385c0-0.947-0.349-1.734-1.348-1.734-0.685 0-1.227 0.496-1.419 1.091-0.048 0.134-0.072 0.315-0.072 0.497v3.531h-1.059v-4.283z"/>
			<path d="m51.472 42.444c0-0.619-0.012-1.104-0.048-1.589h0.938l0.061 0.97h0.024c0.289-0.546 0.962-1.091 1.925-1.091 0.806 0 2.058 0.485 2.058 2.499v3.494h-1.06v-3.385c0-0.947-0.349-1.734-1.347-1.734-0.686 0-1.228 0.496-1.419 1.091-0.048 0.134-0.072 0.315-0.072 0.497v3.531h-1.059v-4.283z"/>
			<path d="m18.658 38.995v7.732h-1.012v-7.732h1.012z"/>
			<path d="m28.148 40.734l1.045 3.355c0.176 0.558 0.319 1.052 0.429 1.548h0.033c0.121-0.496 0.275-0.99 0.451-1.548l1.035-3.355h1.013l-2.091 5.993h-0.924l-2.026-5.993h1.035z"/>
			<path d="m113.24 40.734l1.045 3.355c0.178 0.558 0.32 1.052 0.43 1.548h0.033c0.121-0.496 0.275-0.99 0.451-1.548l1.035-3.355h1.013l-2.092 5.993h-0.925l-2.025-5.993h1.04z"/>
			<path d="m35.101 39.395c0 0.355-0.231 0.639-0.617 0.639-0.352 0-0.583-0.283-0.583-0.639 0-0.354 0.243-0.65 0.605-0.65 0.352 0 0.595 0.283 0.595 0.65zm-1.079 7.332v-5.724h0.969v5.724h-0.969z"/>
			<path d="m119.59 39.395c0 0.355-0.231 0.639-0.617 0.639-0.353 0-0.583-0.283-0.583-0.639 0-0.354 0.242-0.65 0.605-0.65 0.34 0 0.59 0.283 0.59 0.65zm-1.08 7.332v-5.724h0.969v5.724h-0.97z"/>
			<path d="m42.942 39.395c0 0.355-0.231 0.639-0.617 0.639-0.352 0-0.583-0.283-0.583-0.639 0-0.354 0.242-0.65 0.605-0.65 0.353 0 0.595 0.283 0.595 0.65zm-1.078 7.332v-5.724h0.969v5.724h-0.969z"/>
			<path d="m37.263 45.536c0.298 0.189 0.804 0.404 1.289 0.404 0.693 0 1.023-0.369 1.023-0.857 0-0.5-0.275-0.762-0.979-1.048-0.969-0.381-1.42-0.94-1.42-1.632 0-0.929 0.705-1.691 1.838-1.691 0.54 0 1.013 0.154 1.299 0.357l-0.231 0.763c-0.209-0.144-0.594-0.346-1.09-0.346-0.572 0-0.881 0.357-0.881 0.786 0 0.477 0.309 0.69 1.002 0.988 0.914 0.369 1.398 0.869 1.398 1.727 0 1.025-0.737 1.74-1.981 1.74-0.583 0-1.123-0.168-1.497-0.405l0.23-0.786z"/>
			<path d="m133.45 45.536c0.298 0.189 0.804 0.404 1.288 0.404 0.693 0 1.023-0.369 1.023-0.857 0-0.5-0.274-0.762-0.98-1.048-0.968-0.381-1.419-0.94-1.419-1.632 0-0.929 0.704-1.691 1.838-1.691 0.539 0 1.013 0.154 1.299 0.357l-0.231 0.763c-0.209-0.144-0.594-0.346-1.089-0.346-0.573 0-0.882 0.357-0.882 0.786 0 0.477 0.309 0.69 1.003 0.988 0.913 0.369 1.397 0.869 1.397 1.727 0 1.025-0.737 1.74-1.982 1.74-0.582 0-1.121-0.168-1.497-0.405l0.23-0.786z"/>
			<path d="m49.909 43.676c0 2.124-1.376 3.051-2.653 3.051-1.431 0-2.554-1.14-2.554-2.956 0-1.911 1.178-3.037 2.642-3.037 1.531 0 2.565 1.198 2.565 2.942zm-4.216 0.06c0 1.257 0.661 2.208 1.607 2.208 0.924 0 1.618-0.938 1.618-2.232 0-0.973-0.452-2.195-1.596-2.195-1.134-0.001-1.629 1.14-1.629 2.219z"/>
			<path d="m72.373 43.676c0 2.124-1.375 3.051-2.653 3.051-1.431 0-2.554-1.14-2.554-2.956 0-1.911 1.178-3.037 2.642-3.037 1.531 0 2.565 1.198 2.565 2.942zm-4.216 0.06c0 1.257 0.661 2.208 1.607 2.208 0.924 0 1.618-0.938 1.618-2.232 0-0.973-0.451-2.195-1.596-2.195-1.133-0.001-1.629 1.14-1.629 2.219z"/>
			<path d="m156.52 43.676c0 2.124-1.376 3.051-2.654 3.051-1.43 0-2.553-1.14-2.553-2.956 0-1.911 1.178-3.037 2.643-3.037 1.52 0 2.56 1.198 2.56 2.942zm-4.22 0.06c0 1.257 0.66 2.208 1.607 2.208 0.924 0 1.617-0.938 1.617-2.232 0-0.973-0.451-2.195-1.596-2.195-1.13-0.001-1.63 1.14-1.63 2.219z"/>
			<path d="m61.268 38.945c0.492-0.082 1.136-0.152 1.955-0.152 1.007 0 1.745 0.234 2.212 0.655 0.422 0.373 0.691 0.946 0.691 1.646 0 0.713-0.211 1.274-0.609 1.684-0.55 0.572-1.416 0.865-2.411 0.865-0.304 0-0.585-0.013-0.819-0.07v3.154h-1.019v-7.782zm1.019 3.798c0.223 0.059 0.503 0.082 0.843 0.082 1.229 0 1.979-0.608 1.979-1.672 0-1.051-0.749-1.554-1.861-1.554-0.445 0-0.784 0.035-0.96 0.082v3.062z"/>
			<path d="m141.32 38.945c0.492-0.082 1.136-0.152 1.954-0.152 1.008 0 1.745 0.234 2.213 0.655 0.422 0.373 0.691 0.946 0.691 1.646 0 0.713-0.211 1.274-0.609 1.684-0.55 0.572-1.416 0.865-2.411 0.865-0.304 0-0.585-0.013-0.819-0.07v3.154h-1.019v-7.782zm1.02 3.798c0.223 0.059 0.504 0.082 0.843 0.082 1.229 0 1.979-0.608 1.979-1.672 0-1.051-0.749-1.554-1.862-1.554-0.443 0-0.783 0.035-0.959 0.082v3.062z"/>
			<path d="m74.175 40.734l0.716 3.046c0.143 0.668 0.286 1.287 0.385 1.906h0.033c0.121-0.606 0.297-1.25 0.473-1.895l0.87-3.058h0.814l0.826 2.995c0.198 0.719 0.352 1.351 0.474 1.957h0.033c0.088-0.606 0.231-1.238 0.407-1.943l0.76-3.009h0.958l-1.717 5.993h-0.88l-0.815-2.86c-0.187-0.669-0.341-1.263-0.473-1.969h-0.022c-0.132 0.718-0.297 1.337-0.484 1.981l-0.858 2.848h-0.881l-1.607-5.993h0.988z"/>
			<path d="m83.274 44.314c0.022 1.411 0.848 1.594 1.827 1.594 0.693 0 1.123-0.131 1.475-0.296l0.176 0.746c-0.342 0.167-0.936 0.369-1.783 0.369-1.641 0-2.62-1.176-2.62-2.908s0.947-3.085 2.499-3.085c1.75 0 2.201 2.038 2.201 3.093 0 0.215-0.011 0.369-0.033 0.487h-3.742zm2.84-0.747c0.011-0.654-0.253-2.086-1.343-2.086-0.991 0-1.409 1.361-1.486 2.086h2.829z"/>
			<path d="m102.3 44.314c0.021 1.411 0.847 1.594 1.827 1.594 0.692 0 1.121-0.131 1.474-0.296l0.178 0.746c-0.343 0.167-0.937 0.369-1.785 0.369-1.639 0-2.619-1.176-2.619-2.908s0.947-3.085 2.498-3.085c1.751 0 2.203 2.038 2.203 3.093 0 0.215-0.012 0.369-0.033 0.487h-3.75zm2.84-0.747c0.011-0.654-0.253-2.086-1.343-2.086-0.99 0-1.408 1.361-1.486 2.086h2.83z"/>
			<path d="m127.84 44.314c0.021 1.411 0.849 1.594 1.827 1.594 0.694 0 1.123-0.131 1.476-0.296l0.176 0.746c-0.342 0.167-0.936 0.369-1.783 0.369-1.641 0-2.619-1.176-2.619-2.908s0.945-3.085 2.498-3.085c1.75 0 2.202 2.038 2.202 3.093 0 0.215-0.012 0.369-0.033 0.487h-3.76zm2.84-0.747c0.012-0.654-0.252-2.086-1.343-2.086-0.99 0-1.409 1.361-1.486 2.086h2.83z"/>
			<path d="m89.26 42.686c0-0.69-0.011-1.285-0.044-1.832h0.848l0.044 1.166h0.033c0.243-0.789 0.836-1.286 1.487-1.286 0.099 0 0.176 0.012 0.264 0.024v1.006c-0.1-0.023-0.198-0.023-0.33-0.023-0.683 0-1.167 0.559-1.299 1.358-0.022 0.146-0.033 0.327-0.033 0.498v3.13h-0.97v-4.041z"/>
			<path d="m108.33 42.686c0-0.69-0.011-1.285-0.043-1.832h0.847l0.045 1.166h0.033c0.242-0.789 0.836-1.286 1.484-1.286 0.1 0 0.177 0.012 0.266 0.024v1.006c-0.1-0.023-0.199-0.023-0.331-0.023-0.683 0-1.166 0.559-1.298 1.358-0.022 0.146-0.033 0.327-0.033 0.498v3.13h-0.97v-4.041z"/>
			<path d="m147.46 42.686c0-0.69-0.011-1.285-0.044-1.832h0.848l0.043 1.166h0.033c0.242-0.789 0.837-1.286 1.486-1.286 0.099 0 0.177 0.012 0.265 0.024v1.006c-0.1-0.023-0.199-0.023-0.33-0.023-0.683 0-1.167 0.559-1.3 1.358-0.021 0.146-0.033 0.327-0.033 0.498v3.13h-0.968v-4.041z"/>
			<path d="m95.813 45.405c0.442 0.283 1.076 0.497 1.756 0.497 1.007 0 1.597-0.531 1.597-1.3 0-0.699-0.408-1.117-1.438-1.502-1.246-0.452-2.016-1.107-2.016-2.169 0-1.185 0.985-2.067 2.469-2.067 0.771 0 1.348 0.182 1.676 0.373l-0.271 0.802c-0.238-0.146-0.748-0.361-1.438-0.361-1.042 0-1.438 0.622-1.438 1.142 0 0.711 0.465 1.062 1.519 1.469 1.29 0.496 1.936 1.117 1.936 2.236 0 1.175-0.86 2.203-2.66 2.203-0.737 0-1.54-0.227-1.948-0.498l0.261-0.825z"/>
			<path d="m125.46 46.395c-0.254 0.13-0.815 0.332-1.53 0.332-1.607 0-2.653-1.176-2.653-2.932 0-1.769 1.123-3.062 2.862-3.062 0.573 0 1.079 0.153 1.343 0.308l-0.221 0.795c-0.23-0.13-0.595-0.271-1.122-0.271-1.223 0-1.883 0.984-1.883 2.171 0 1.329 0.793 2.148 1.85 2.148 0.551 0 0.914-0.143 1.188-0.272l0.16 0.783z"/>
			<path d="m175.51 46.395c-0.254 0.13-0.814 0.332-1.53 0.332-1.607 0-2.653-1.176-2.653-2.932 0-1.769 1.123-3.062 2.862-3.062 0.573 0 1.079 0.153 1.343 0.308l-0.221 0.795c-0.23-0.13-0.594-0.271-1.122-0.271-1.222 0-1.883 0.984-1.883 2.171 0 1.329 0.793 2.148 1.85 2.148 0.551 0 0.914-0.143 1.188-0.272l0.16 0.783z"/>
			<path d="m163.37 38.836v6.402c0 0.47 0.021 1.006 0.044 1.367h-0.858l-0.044-0.92h-0.033c-0.287 0.592-0.924 1.041-1.794 1.041-1.287 0-2.29-1.084-2.29-2.693-0.011-1.762 1.101-2.834 2.389-2.834 0.826 0 1.365 0.383 1.607 0.799h0.021v-3.162h0.95zm-0.96 4.629c0-0.121-0.011-0.285-0.044-0.405-0.144-0.602-0.671-1.105-1.397-1.105-1.002 0-1.597 0.876-1.597 2.036 0 1.072 0.54 1.959 1.575 1.959 0.648 0 1.242-0.438 1.419-1.149 0.033-0.132 0.044-0.263 0.044-0.416v-0.92z"/>
			<path d="m169.66 44.983c0 0.617 0.01 1.15 0.043 1.61h-0.858l-0.055-0.956h-0.022c-0.242 0.472-0.813 1.09-1.762 1.09-0.836 0-1.838-0.521-1.838-2.567v-3.426h0.969v3.232c0 1.114 0.319 1.876 1.188 1.876 0.65 0 1.102-0.496 1.277-0.98 0.055-0.145 0.088-0.339 0.088-0.545v-3.583h0.97v4.249z"/>
			<path d="m178.48 39.634v1.347h1.387v0.777h-1.387v3.029c0 0.697 0.187 1.092 0.726 1.092 0.265 0 0.418-0.023 0.563-0.07l0.043 0.777c-0.188 0.07-0.484 0.141-0.858 0.141-0.451 0-0.814-0.164-1.046-0.43-0.264-0.313-0.375-0.813-0.375-1.475v-3.064h-0.824v-0.777h0.824v-1.045l0.96-0.302z"/>
		</g>
			<g fill="#345F8D">
					<path d="m50.862 30.713c0 0.121-0.03 0.226-0.09 0.316-0.061 0.089-0.166 0.16-0.316 0.213-0.151 0.053-0.351 0.098-0.599 0.136-0.248 0.037-0.561 0.056-0.937 0.056-0.362 0-0.67-0.019-0.926-0.056-0.256-0.038-0.459-0.083-0.609-0.136s-0.256-0.124-0.316-0.213c-0.06-0.091-0.09-0.195-0.09-0.316v-27.986c0-0.12 0.034-0.225 0.102-0.315s0.181-0.162 0.338-0.214c0.158-0.053 0.361-0.098 0.61-0.135 0.248-0.038 0.545-0.057 0.892-0.057 0.375 0 0.688 0.019 0.937 0.057s0.448 0.083 0.599 0.135c0.15 0.052 0.255 0.124 0.316 0.214 0.06 0.09 0.09 0.196 0.09 0.315v27.986z"/>
					<path d="m75.418 10.681c0 1.457-0.241 2.771-0.723 3.943-0.482 1.171-1.17 2.171-2.066 2.997s-1.994 1.464-3.295 1.915c-1.302 0.451-2.856 0.676-4.662 0.676h-3.318v10.501c0 0.121-0.034 0.226-0.102 0.316-0.067 0.089-0.173 0.16-0.315 0.213-0.144 0.053-0.339 0.098-0.587 0.136-0.248 0.037-0.561 0.056-0.937 0.056s-0.688-0.019-0.937-0.056c-0.248-0.038-0.448-0.083-0.598-0.136s-0.256-0.124-0.316-0.213c-0.06-0.091-0.09-0.195-0.09-0.316v-26.904c0-0.601 0.158-1.029 0.474-1.285 0.316-0.255 0.67-0.383 1.062-0.383h6.253c0.632 0 1.237 0.027 1.817 0.079 0.58 0.053 1.265 0.166 2.054 0.338 0.79 0.173 1.595 0.496 2.416 0.969 0.82 0.473 1.516 1.056 2.088 1.747 0.571 0.691 1.012 1.491 1.32 2.4 0.308 0.908 0.462 1.91 0.462 3.007zm-4.085 0.316c0-1.187-0.222-2.178-0.666-2.975-0.444-0.796-0.993-1.389-1.648-1.78-0.654-0.391-1.332-0.639-2.032-0.744-0.7-0.104-1.381-0.158-2.042-0.158h-3.59v11.695h3.499c1.174 0 2.148-0.15 2.923-0.451 0.775-0.3 1.426-0.717 1.953-1.251 0.527-0.533 0.926-1.171 1.196-1.915 0.271-0.743 0.407-1.55 0.407-2.421z"/>
					<path d="m99.455 22.939c0 0.917-0.117 1.762-0.351 2.535-0.233 0.774-0.562 1.469-0.982 2.085-0.421 0.615-0.929 1.156-1.523 1.622s-1.265 0.856-2.009 1.171c-0.745 0.316-1.543 0.553-2.393 0.711-0.852 0.157-1.826 0.236-2.924 0.236h-7.63c-0.346 0-0.674-0.116-0.982-0.35-0.309-0.232-0.463-0.643-0.463-1.228v-26.003c0-0.586 0.154-0.995 0.463-1.228 0.308-0.233 0.636-0.35 0.982-0.35h6.637c1.746 0 3.175 0.166 4.289 0.496 1.113 0.331 2.043 0.812 2.788 1.442 0.744 0.631 1.305 1.405 1.682 2.321 0.376 0.917 0.564 1.953 0.564 3.11 0 0.691-0.083 1.352-0.248 1.983-0.166 0.631-0.411 1.213-0.734 1.746-0.324 0.534-0.73 1.011-1.219 1.431-0.489 0.421-1.05 0.766-1.682 1.037 0.797 0.15 1.543 0.424 2.234 0.822s1.299 0.905 1.817 1.521c0.52 0.616 0.929 1.337 1.23 2.163 0.303 0.827 0.454 1.736 0.454 2.727zm-5.848-13.046c0-0.707-0.098-1.345-0.293-1.916-0.195-0.57-0.502-1.055-0.924-1.453-0.42-0.398-0.968-0.702-1.643-0.913-0.676-0.21-1.569-0.315-2.681-0.315h-4.008v9.442h4.414c1.006 0 1.816-0.132 2.432-0.395 0.615-0.263 1.126-0.616 1.531-1.059s0.702-0.961 0.89-1.555c0.189-0.593 0.282-1.206 0.282-1.836zm1.762 13.272c0-0.871-0.14-1.637-0.418-2.298-0.277-0.661-0.683-1.217-1.217-1.667-0.533-0.451-1.201-0.792-2.004-1.025-0.805-0.232-1.814-0.349-3.031-0.349h-4.641v10.274h5.632c0.886 0 1.66-0.105 2.321-0.316 0.66-0.21 1.242-0.521 1.746-0.935 0.503-0.413 0.896-0.928 1.182-1.544 0.287-0.615 0.43-1.329 0.43-2.14z"/>
					<path d="m122.66 20.371c0 1.653-0.219 3.173-0.654 4.563-0.437 1.389-1.088 2.588-1.952 3.594-0.866 1.006-1.95 1.791-3.252 2.354s-2.811 0.845-4.526 0.845c-1.67 0-3.126-0.247-4.367-0.743-1.241-0.495-2.277-1.217-3.104-2.163-0.829-0.947-1.444-2.096-1.851-3.447-0.406-1.353-0.609-2.885-0.609-4.597 0-1.653 0.214-3.173 0.643-4.563 0.429-1.389 1.076-2.587 1.941-3.594s1.945-1.788 3.239-2.344 2.807-0.833 4.538-0.833c1.67 0 3.126 0.248 4.367 0.743 1.241 0.496 2.275 1.217 3.104 2.164 0.828 0.946 1.448 2.095 1.862 3.447 0.41 1.351 0.62 2.876 0.62 4.574zm-3.86 0.247c0-1.096-0.103-2.132-0.308-3.109s-0.543-1.833-1.014-2.569-1.108-1.318-1.914-1.746c-0.804-0.428-1.806-0.643-3.006-0.643-1.107 0-2.062 0.196-2.858 0.586-0.798 0.391-1.454 0.943-1.97 1.656-0.517 0.714-0.9 1.559-1.151 2.535-0.25 0.977-0.375 2.043-0.375 3.2 0 1.112 0.103 2.156 0.308 3.133 0.204 0.977 0.546 1.828 1.025 2.557s1.119 1.308 1.925 1.736c0.804 0.428 1.806 0.642 3.005 0.642 1.095 0 2.043-0.194 2.848-0.586 0.806-0.39 1.466-0.938 1.981-1.646 0.518-0.705 0.897-1.547 1.14-2.523 0.24-0.977 0.37-2.051 0.37-3.223z"/>
					<path d="m142.29 30.758c0 0.181-0.061 0.315-0.18 0.406-0.121 0.09-0.287 0.157-0.497 0.203-0.211 0.045-0.52 0.066-0.926 0.066-0.391 0-0.704-0.021-0.937-0.066-0.234-0.046-0.403-0.113-0.508-0.203-0.105-0.091-0.158-0.226-0.158-0.406v-2.027c-0.889 0.945-1.878 1.682-2.969 2.208s-2.245 0.788-3.465 0.788c-1.068 0-2.036-0.139-2.901-0.416-0.864-0.278-1.602-0.68-2.212-1.206-0.608-0.526-1.083-1.171-1.422-1.938s-0.508-1.638-0.508-2.614c0-1.142 0.232-2.133 0.699-2.975 0.468-0.841 1.137-1.54 2.01-2.095 0.872-0.556 1.941-0.973 3.204-1.25 1.265-0.278 2.688-0.417 4.268-0.417h2.8v-1.578c0-0.781-0.083-1.472-0.249-2.073s-0.434-1.101-0.801-1.499c-0.369-0.398-0.848-0.698-1.435-0.901-0.586-0.203-1.31-0.305-2.167-0.305-0.918 0-1.741 0.109-2.472 0.327-0.729 0.218-1.368 0.458-1.919 0.722-0.549 0.263-1.008 0.503-1.376 0.721-0.37 0.218-0.644 0.327-0.824 0.327-0.12 0-0.226-0.03-0.315-0.09-0.091-0.06-0.17-0.149-0.237-0.27-0.067-0.12-0.116-0.274-0.147-0.462-0.029-0.188-0.045-0.395-0.045-0.62 0-0.375 0.026-0.672 0.08-0.89 0.052-0.218 0.18-0.424 0.383-0.62 0.203-0.195 0.553-0.424 1.049-0.687 0.497-0.262 1.069-0.503 1.717-0.721 0.646-0.218 1.354-0.398 2.122-0.541 0.767-0.143 1.542-0.214 2.324-0.214 1.46 0 2.702 0.165 3.725 0.495 1.023 0.331 1.852 0.815 2.483 1.454 0.632 0.639 1.091 1.431 1.377 2.377s0.429 2.051 0.429 3.313v13.677zm-3.7-9.261h-3.184c-1.024 0-1.911 0.087-2.664 0.259-0.752 0.173-1.377 0.428-1.874 0.767-0.496 0.338-0.86 0.744-1.095 1.217-0.232 0.473-0.35 1.018-0.35 1.634 0 1.051 0.334 1.889 1.005 2.512 0.67 0.624 1.606 0.936 2.81 0.936 0.979 0 1.887-0.248 2.721-0.744 0.836-0.496 1.712-1.254 2.631-2.275v-4.306z"/>
					<path d="m159.85 11.785c0 0.331-0.008 0.608-0.022 0.834-0.016 0.225-0.045 0.402-0.09 0.529-0.046 0.127-0.102 0.225-0.17 0.293-0.067 0.068-0.162 0.102-0.281 0.102-0.121 0-0.269-0.034-0.441-0.102s-0.368-0.135-0.587-0.203c-0.218-0.067-0.463-0.131-0.732-0.191-0.272-0.06-0.565-0.09-0.882-0.09-0.376 0-0.744 0.075-1.106 0.226-0.361 0.15-0.74 0.398-1.139 0.743-0.398 0.346-0.817 0.804-1.253 1.375-0.438 0.571-0.918 1.27-1.445 2.096v13.34c0 0.12-0.03 0.222-0.091 0.305-0.06 0.082-0.157 0.153-0.293 0.214-0.135 0.06-0.323 0.105-0.564 0.135-0.24 0.03-0.55 0.045-0.925 0.045-0.361 0-0.662-0.015-0.902-0.045-0.242-0.029-0.435-0.075-0.577-0.135-0.143-0.061-0.24-0.132-0.293-0.214-0.053-0.083-0.079-0.185-0.079-0.305v-20.28c0-0.12 0.022-0.221 0.067-0.304s0.136-0.158 0.271-0.225c0.135-0.068 0.308-0.113 0.52-0.135 0.21-0.022 0.489-0.034 0.835-0.034 0.33 0 0.605 0.011 0.823 0.034 0.219 0.022 0.389 0.067 0.509 0.135 0.12 0.067 0.206 0.143 0.259 0.225 0.053 0.083 0.08 0.185 0.08 0.304v2.952c0.556-0.812 1.079-1.472 1.568-1.983s0.951-0.913 1.389-1.206c0.436-0.293 0.868-0.496 1.297-0.609 0.43-0.112 0.862-0.168 1.298-0.168 0.195 0 0.418 0.011 0.667 0.034 0.248 0.022 0.508 0.064 0.778 0.124 0.271 0.061 0.515 0.128 0.733 0.203s0.373 0.15 0.464 0.225c0.09 0.076 0.149 0.146 0.18 0.214s0.057 0.154 0.079 0.259c0.022 0.105 0.038 0.26 0.046 0.462-0.02 0.202-0.01 0.476-0.01 0.821z"/>
					<path d="m179.71 30.736c0 0.12-0.025 0.226-0.078 0.315s-0.144 0.162-0.271 0.215c-0.127 0.052-0.297 0.094-0.508 0.123-0.211 0.03-0.466 0.045-0.767 0.045-0.316 0-0.58-0.015-0.791-0.045-0.211-0.029-0.383-0.071-0.519-0.123-0.136-0.053-0.233-0.125-0.293-0.215-0.061-0.09-0.091-0.195-0.091-0.315v-2.681c-1.069 1.156-2.179 2.058-3.329 2.703-1.152 0.646-2.413 0.969-3.782 0.969-1.489 0-2.761-0.289-3.814-0.867s-1.907-1.359-2.562-2.344c-0.655-0.983-1.133-2.141-1.434-3.471-0.301-1.329-0.451-2.729-0.451-4.202 0-1.743 0.188-3.316 0.564-4.721 0.375-1.404 0.932-2.602 1.67-3.594 0.737-0.991 1.651-1.754 2.743-2.287 1.09-0.533 2.351-0.8 3.781-0.8 1.188 0 2.275 0.259 3.262 0.777 0.984 0.518 1.96 1.281 2.923 2.287v-11.784c0-0.105 0.025-0.206 0.078-0.304s0.154-0.173 0.306-0.225c0.15-0.053 0.342-0.098 0.576-0.135 0.22-0.038 0.52-0.057 0.88-0.057 0.376 0 0.685 0.019 0.926 0.057 0.24 0.038 0.429 0.083 0.563 0.135 0.136 0.052 0.237 0.127 0.305 0.225s0.102 0.199 0.102 0.304v30.015zm-3.75-14.264c-1.008-1.247-1.983-2.196-2.923-2.85-0.941-0.653-1.923-0.98-2.946-0.98-0.949 0-1.754 0.225-2.416 0.676s-1.2 1.044-1.613 1.78c-0.414 0.736-0.715 1.57-0.903 2.501s-0.282 1.878-0.282 2.839c0 1.022 0.079 2.021 0.237 2.997 0.157 0.977 0.433 1.845 0.823 2.603 0.392 0.759 0.911 1.367 1.558 1.825s1.46 0.688 2.438 0.688c0.497 0 0.974-0.067 1.434-0.203 0.459-0.135 0.929-0.36 1.41-0.676 0.482-0.315 0.985-0.725 1.513-1.228 0.527-0.504 1.084-1.123 1.671-1.859v-8.113z"/>
					<path d="m0.001 27.733c0 2.197 1.801 3.994 4.002 3.994h6.031l-10.033-14.528v10.534z"/>
					<polygon points="0.001 1.687 0.001 2.446 15.539 25.78 15.539 25.78 31.077 2.446 31.077 1.687"/>
					<path d="m27.075 31.727c2.201 0 4.002-1.797 4.002-3.994v-10.534l-10.034 14.528h6.032z"/>
			</g>
</svg>
