<?xml version="1.0" encoding="UTF-8" standalone="no"?>
<!-- Created with Inkscape (http://www.inkscape.org/) -->
<svg id="svg2" xmlns="http://www.w3.org/2000/svg" xml:space="preserve" height="330.74" width="782.42" version="1.1" xmlns:xlink="http://www.w3.org/1999/xlink"><defs id="defs6"><clipPath id="clipPath11692"><path id="path11694" d="m72 471.45h256.78v108.55h-256.78v-108.55z"/></clipPath><clipPath id="clipPath12176"><path id="path12178" d="m423.48 321.4v-75.376c0-7.959 6.467-14.41 14.446-14.41h110.36c7.978 0 14.446 6.451 14.446 14.41v75.376h-139.26z"/></clipPath><clipPath id="clipPath12186"><path id="path12188" d="m0-0.77548h1v1.551h-1v-1.551z"/></clipPath><linearGradient id="linearGradient12190" gradientUnits="userSpaceOnUse" gradientTransform="matrix(0 -89.787 -89.787 0 493.11 321.4)"><stop id="stop12192" stop-color="#fff" offset="0"/><stop id="stop12194" stop-color="#c4ccdd" offset="1"/></linearGradient><clipPath id="clipPath12214"><path id="path12216" d="m437.92 335.81c-7.979 0-14.446-6.452-14.446-14.412h139.26c0 7.96-6.468 14.412-14.446 14.412h-110.36z"/></clipPath><clipPath id="clipPath12224"><path id="path12226" d="m0-4.8314h1v9.6628h-1v-9.6628z"/></clipPath><linearGradient id="linearGradient12228" gradientUnits="userSpaceOnUse" gradientTransform="matrix(0 14.412 14.412 0 493.11 321.4)"><stop id="stop12230" stop-color="#c4ccdd" offset="0"/><stop id="stop12232" stop-color="#465277" offset="1"/></linearGradient><clipPath id="clipPath22669"><path id="path22671" d="m423.48 209.99v-75.368c0-7.96 6.467-14.41 14.445-14.41h110.36c7.977 0 14.444 6.45 14.444 14.41v75.368h-139.24z"/></clipPath><clipPath id="clipPath22679"><path id="path22681" d="m0-0.77548h1v1.551h-1v-1.551z"/></clipPath><linearGradient id="linearGradient22683" gradientUnits="userSpaceOnUse" gradientTransform="matrix(0 -89.778 -89.778 0 493.1 209.99)"><stop id="stop22685" stop-color="#fff" offset="0"/><stop id="stop22687" stop-color="#c4ccdd" offset="1"/></linearGradient><clipPath id="clipPath36667"><path id="path36669" d="m437.92 224.4c-7.978 0-14.445-6.453-14.445-14.41h139.24c0 7.957-6.467 14.41-14.444 14.41h-110.36z"/></clipPath><clipPath id="clipPath36677"><path id="path36679" d="m0-4.8314h0.99998v9.6628h-0.99998v-9.6628z"/></clipPath><linearGradient id="linearGradient36681" gradientUnits="userSpaceOnUse" gradientTransform="matrix(0 14.41 14.41 0 493.1 209.99)"><stop id="stop36683" stop-color="#c4ccdd" offset="0"/><stop id="stop36685" stop-color="#465277" offset="1"/></linearGradient></defs><g id="g12" transform="matrix(1.25 0 0 -1.25 371.44 920.06)"><g id="g11688" transform="matrix(2.4376 0 0 2.4376 -472.66 -677.77)"><g id="g11690" clip-path="url(#clipPath11692)"><g id="g11696" transform="translate(268.15 571.82)"><path id="path11698" d="m0 0c-0.069 0.013-0.13 0.028-0.206 0.04-3.222 0.514-10.448 0.86-12.478 0.86-2.033 0-1.667-0.48-1.667-0.48 3.57-2.806 14.319-12.375 18.052-28.356 0 0 0.175-0.458 0.264-1.188 0.002-0.014 0.005-0.025 0.008-0.038l-0.004 0.001c0.135-1.122 0.185-2.848-0.366-4.5-0.5-1.203-1.752-3.088-1.752-3.088-0.339-0.439-0.665-1.214 0.08-2.155l-0.004 0.001 6.992-9.541-0.083 0.003 2.588-3.879s0.399-0.484 0.654-1.187c0.859-2.976-2.687-4.161-4.039-4.5-0.156-0.03-0.505-0.111-0.505-0.111h0.001c-1.877-0.449-4.543-1.529-2.707-3.828h-0.002l0.01-0.01c0.031-0.041 0.072-0.081 0.106-0.123 0.135-0.162 0.389-0.491 0.759-1.075 0.36-0.742 0.672-1.932-0.417-2.785 0 0 0-0.002-0.001-0.003-0.578-0.372-1.55-1.2-0.613-2.126l-0.062 0.063s0.131-0.163 0.244-0.451c0.432-1.598-0.633-2.717-1.053-3.085-0.053-0.041-0.105-0.081-0.151-0.123-0.007-0.005-0.013-0.011-0.013-0.011l0.007 0.006c-1.121-1.024-0.464-2.322-0.464-2.322 0.001-0.007 0.001-0.012 0.003-0.019 0.027-0.116 0.052-0.236 0.074-0.354 0.292-1.609 0.117-3.447-0.149-4.953l-0.877-3.152 0.015 0.017c-0.173-0.396 3.365-0.112 5.358 0.632h0.001c21.19 5.569 36.487 21.435 36.487 40.155 0 20.892-19.053 38.234-44.09 41.665" fill-rule="evenodd" fill="#c4ccdd"/></g><g id="g11700" transform="translate(259.64 539.44)"><path id="path11702" d="m0 0h2.902" fill-rule="evenodd" fill="#231f20"/></g><g id="g11704" transform="translate(274.93 520.07)"><path id="path11706" d="m0 0c-3.023 4.327-5.896 8.258-8.449 12.919-0.434 0.792-1.023 1.662-0.875 2.696 0.192 1.331 1.478 2.003 2.04 2.977 1.335 2.317 0.411 5.361-0.409 7.809-1.661 4.964-3.757 9.297-6.294 13.145-3.484 5.289-7.75 9.602-13.809 11.958v-24.219c0.314-0.316 0.968-0.74 1.28-0.997 1.587-1.306 2.833-2.419 4.137-3.931 5.048-5.846 8.186-13.221 8.684-23.368 0.338-6.876-1.224-12.765-3.438-17.697-2.043-4.545-5.005-8.588-8.567-11.569-0.189-0.159-0.582-0.297-0.523-0.62 5.532-1.095 15.989-2.589 18.589 2.078 1.012 1.819 0.363 4.583-0.216 6.805h0.001s-0.004 0.007-0.004 0.008c-0.049 0.19-0.098 0.375-0.145 0.557-0.072 0.34-0.126 0.785-0.088 1.205 0.027 0.152 0.095 0.461 0.258 0.865 0.026 0.058 0.052 0.115 0.077 0.173 0.216 0.48 0.569 1.058 1.123 1.632v0.004c0.651 0.653 0.675 0.693 0.675 0.841 0 0.167-0.874 0.66-0.874 0.66-0.446 0.325-0.869 0.64-0.866 1.295 0.009 1.424 2.068 1.507 2.272 2.582 0.157 0.812-0.363 1.551-0.64 2.248-0.198 0.5-0.443 1.121-0.591 1.764-0.166 0.911-0.133 2.299 1.313 3.072 0.767 0.364 1.733 0.652 2.426 0.895 0.631 0.221 1.279 0.432 1.981 0.673 0.609 0.208 1.549 0.471 1.747 0.955 0.329 0.796-0.337 1.899-0.815 2.585" fill-rule="evenodd" fill="#445277"/></g><g id="g11708" transform="translate(272.12 542.7)"><path id="path11710" d="m0 0c0.002-0.014 0.005-0.025 0.008-0.038l-0.004 0.001c0.006-0.045 0.01-0.097 0.015-0.145 3.533-1.779 6.505-4.086 9.035-7.023 2.503-2.902 4.628-6.618 4.628-11.789 0-5.246-2.148-8.891-4.628-11.846-2.206-2.631-4.828-4.7-8.009-6.374-0.124-0.066-0.282-0.133-0.437-0.215-0.287-0.356-0.432-0.802-0.095-1.285 0.204-0.023 0.438 0.063 0.7 0.147 3.555 1.128 6.89 2.74 9.704 4.568 4.877 3.169 9.445 7.027 12.409 12.072 0.975 1.657 1.73 3.705 2.427 5.754 1.416 4.163 1.873 9.261 0.563 14.045-1.128 4.128-3.192 7.709-5.47 10.886-6.743 9.394-18.722 14.195-33.337 15.343v-0.027c0.668-0.733 1.357-1.531 2.055-2.39 2.106-2.504 3.989-5.234 5.56-8.243 1.034-1.984 2.012-4.081 2.825-6.339 0.692-1.863 1.3-3.834 1.787-5.915 0 0 0.175-0.457 0.264-1.187" fill-rule="evenodd" fill="#8595bb"/></g><g id="g11712" transform="translate(326.16 541.12)"><path id="path11714" d="m0 0c-3.119 8.583-8.361 15.104-14.272 20.694-8.971 8.485-20.284 14.543-35.402 16.958-4.845 0.773-10.884 1.43-16.446 1.171-5.196-0.241-9.447-0.838-13.825-1.897-4.151-1.002-8.845-1.844-11.096-4.685-1.11-1.403-1.472-3.946-1.895-5.968-1.375-6.569-2.671-12.626-4.022-19.037-6.047-2.381-10.335-8.319-10.335-15.272 0-0.021 0.003-0.041 0.003-0.061-0.003-0.823 0.057-1.675 0.194-2.555 0.597-3.876 2.331-7.01 4.682-9.205 2.347-2.189 5.425-3.998 9.422-4.461 0.356-0.042 0.706-0.067 1.054-0.085 0.037-0.001 0.072-0.002 0.109-0.003 0.223-0.011 0.446-0.017 0.667-0.019 0.029 0 0.058-0.002 0.086-0.002 0.083 0 0.165 0.005 0.248 0.008 0.135 0.002 0.271 0.004 0.405 0.01 0.22 0.008 0.439 0.024 0.657 0.041 0.01 0 0.02 0 0.031 0.002 8.328 0.689 14.874 7.735 14.874 16.33 0 5.963-3.152 11.182-7.864 14.049v8.802h-0.009v19.88c8.961 2.261 20.162 2.288 29.828 0.559 9.642-1.727 17.405-5.169 24.362-9.595 6.941-4.416 12.313-10.133 16.947-17.012 2.32-3.442 4.172-7.183 5.298-11.713 1.126-4.549 1.628-9.827 1.225-15.562-0.363-5.149-1.384-9.876-3.288-13.667-1.936-3.852-3.904-7.367-6.412-10.597-5.004-6.445-11.57-11.347-18.955-15.061-7.783-3.913-15.72-6.746-26.203-7.753-10.319-0.991-20.496 0.511-28.376 2.9-0.524 0.159-1.246 0.512-1.673 0.503-0.608-0.012-1.84-1.019-2.342-1.341-0.21-0.13-0.607-0.342-0.501-0.445 8.863-2.924 18.005-5.577 29.324-5.577 11.624 0 20.417 1.981 28.599 5.243 16.215 6.462 29.432 17.34 35.18 34.471 1.537 4.586 2.341 9.604 2.341 15.117 0.006 5.544-1.027 10.469-2.614 14.834" fill-rule="evenodd" fill="#445277"/></g><g id="g11716" transform="translate(88.695 501.93)"><path id="path11718" d="m0 0 0.713-0.188c-0.149-0.61-0.417-1.076-0.805-1.396-0.387-0.321-0.861-0.481-1.42-0.481-0.579 0-1.051 0.123-1.413 0.369-0.363 0.247-0.64 0.604-0.829 1.072-0.189 0.467-0.284 0.97-0.284 1.506 0 0.585 0.107 1.096 0.321 1.532 0.213 0.435 0.518 0.766 0.912 0.992 0.395 0.227 0.829 0.339 1.303 0.339 0.538 0 0.99-0.142 1.356-0.429 0.367-0.286 0.622-0.688 0.766-1.207l-0.703-0.172c-0.125 0.409-0.305 0.707-0.542 0.894-0.237 0.186-0.535 0.28-0.894 0.28-0.412 0-0.757-0.104-1.034-0.311s-0.472-0.486-0.584-0.834c-0.112-0.35-0.169-0.709-0.169-1.08 0-0.478 0.067-0.895 0.2-1.252s0.34-0.623 0.621-0.8c0.281-0.176 0.585-0.265 0.913-0.265 0.398 0 0.735 0.121 1.011 0.361s0.463 0.597 0.561 1.07" fill="#445277"/></g><g id="g11720" transform="translate(92.891 502.69)"><path id="path11722" d="m0 0c0-0.677 0.175-1.21 0.524-1.599 0.349-0.39 0.786-0.585 1.313-0.585 0.537 0 0.978 0.197 1.325 0.59 0.346 0.393 0.52 0.952 0.52 1.675 0 0.457-0.075 0.856-0.223 1.196-0.148 0.342-0.365 0.606-0.65 0.794-0.286 0.188-0.606 0.282-0.961 0.282-0.505 0-0.939-0.181-1.302-0.542-0.364-0.362-0.546-0.965-0.546-1.811m-0.732 0.013c0 0.931 0.239 1.661 0.719 2.188 0.48 0.528 1.099 0.791 1.857 0.791 0.497 0 0.945-0.124 1.344-0.371 0.399-0.249 0.703-0.594 0.912-1.037s0.314-0.945 0.314-1.507c0-0.569-0.11-1.078-0.33-1.528s-0.533-0.79-0.936-1.021c-0.404-0.231-0.84-0.346-1.307-0.346-0.507 0-0.96 0.127-1.359 0.382-0.398 0.256-0.701 0.605-0.906 1.047-0.206 0.442-0.308 0.908-0.308 1.402" fill="#445277"/></g><g id="g11724" transform="translate(100.29 499.96)"><path id="path11726" d="m0 0v5.62h1.07l1.277-3.977c0.118-0.371 0.204-0.647 0.258-0.831 0.061 0.204 0.157 0.504 0.287 0.9l1.294 3.908h0.956v-5.62h-0.689v4.702l-1.565-4.702h-0.643l-1.557 4.785v-4.785h-0.688z" fill="#445277"/></g><g id="g11728" transform="translate(108.64 499.96)"><path id="path11730" d="m0 0v5.62h1.07l1.277-3.977c0.118-0.371 0.204-0.647 0.258-0.831 0.061 0.204 0.157 0.504 0.287 0.9l1.295 3.908h0.955v-5.62h-0.689v4.702l-1.565-4.702h-0.642l-1.557 4.785v-4.785h-0.689z" fill="#445277"/></g><g id="g11732" transform="translate(120.54 505.58)"><path id="path11734" d="m0 0h0.713v-3.245c0-0.565-0.061-1.013-0.184-1.346-0.122-0.331-0.342-0.601-0.661-0.809-0.32-0.209-0.738-0.312-1.257-0.312-0.503 0-0.915 0.09-1.235 0.271-0.321 0.182-0.549 0.444-0.686 0.788s-0.206 0.813-0.206 1.408v3.245h0.713v-3.242c0-0.489 0.044-0.848 0.13-1.079 0.087-0.231 0.236-0.41 0.447-0.535 0.212-0.125 0.47-0.188 0.775-0.188 0.523 0 0.895 0.124 1.118 0.372 0.222 0.248 0.333 0.724 0.333 1.43v3.242z" fill="#445277"/></g><g id="g11736" transform="translate(124.52 499.96)"><path id="path11738" d="m0 0v5.62h0.731l2.824-4.412v4.412h0.683v-5.62h-0.731l-2.823 4.413v-4.413h-0.684z" fill="#445277"/></g><path id="path11740" d="m132.17 505.58h0.713v-5.62h-0.713v5.62z" fill="#445277"/><g id="g11742" transform="translate(140.05 501.93)"><path id="path11744" d="m0 0 0.713-0.188c-0.149-0.61-0.417-1.076-0.805-1.396-0.387-0.321-0.861-0.481-1.421-0.481-0.578 0-1.05 0.123-1.412 0.369-0.363 0.247-0.639 0.604-0.829 1.072-0.189 0.467-0.284 0.97-0.284 1.506 0 0.585 0.107 1.096 0.321 1.532 0.213 0.435 0.518 0.766 0.912 0.992 0.395 0.227 0.829 0.339 1.303 0.339 0.538 0 0.989-0.142 1.356-0.429 0.367-0.286 0.622-0.688 0.766-1.207l-0.703-0.172c-0.125 0.409-0.305 0.707-0.542 0.894-0.237 0.186-0.534 0.28-0.893 0.28-0.413 0-0.758-0.104-1.035-0.311s-0.472-0.486-0.584-0.834c-0.112-0.35-0.169-0.709-0.169-1.08 0-0.478 0.067-0.895 0.2-1.252s0.34-0.623 0.622-0.8c0.28-0.176 0.585-0.265 0.912-0.265 0.398 0 0.735 0.121 1.011 0.361 0.277 0.24 0.463 0.597 0.561 1.07" fill="#445277"/></g><g id="g11746" transform="translate(144.28 502.27)"><path id="path11748" d="m0 0h1.827l-0.56 1.559c-0.171 0.472-0.3 0.862-0.384 1.166-0.069-0.362-0.167-0.721-0.292-1.076l-0.591-1.649zm-1.549-2.304 2.065 5.62h0.771l2.197-5.62h-0.811l-0.625 1.699h-2.255l-0.587-1.699h-0.755z" fill="#445277"/></g><g id="g11750" transform="translate(151.24 499.96)"><path id="path11752" d="m0 0v4.956h-1.772v0.664h4.262v-0.664h-1.777v-4.956h-0.713z" fill="#445277"/></g><path id="path11754" d="m156.54 505.58h0.713v-5.62h-0.713v5.62z" fill="#445277"/><g id="g11756" transform="translate(161.11 502.69)"><path id="path11758" d="m0 0c0-0.677 0.174-1.21 0.524-1.599 0.348-0.39 0.787-0.585 1.313-0.585 0.537 0 0.978 0.197 1.324 0.59 0.347 0.393 0.52 0.952 0.52 1.675 0 0.457-0.074 0.856-0.222 1.196-0.148 0.342-0.365 0.606-0.65 0.794-0.286 0.188-0.606 0.282-0.961 0.282-0.505 0-0.939-0.181-1.302-0.542-0.364-0.362-0.546-0.965-0.546-1.811m-0.733 0.013c0 0.931 0.241 1.661 0.72 2.188 0.479 0.528 1.099 0.791 1.857 0.791 0.497 0 0.945-0.124 1.344-0.371 0.399-0.249 0.703-0.594 0.912-1.037s0.314-0.945 0.314-1.507c0-0.569-0.11-1.078-0.33-1.528-0.221-0.45-0.533-0.79-0.937-1.021-0.403-0.231-0.839-0.346-1.306-0.346-0.507 0-0.96 0.127-1.359 0.382-0.398 0.256-0.701 0.605-0.906 1.047s-0.309 0.908-0.309 1.402" fill="#445277"/></g><g id="g11760" transform="translate(168.52 499.96)"><path id="path11762" d="m0 0v5.62h0.731l2.824-4.412v4.412h0.683v-5.62h-0.73l-2.824 4.413v-4.413h-0.684z" fill="#445277"/></g><g id="g11764" transform="translate(179.98 501.77)"><path id="path11766" d="m0 0 0.674 0.063c0.031-0.282 0.105-0.513 0.221-0.693 0.116-0.181 0.296-0.327 0.541-0.438 0.244-0.112 0.518-0.168 0.824-0.168 0.271 0 0.511 0.042 0.718 0.127 0.208 0.085 0.362 0.2 0.463 0.348 0.101 0.147 0.153 0.308 0.153 0.481 0 0.177-0.05 0.331-0.147 0.462-0.097 0.132-0.258 0.242-0.484 0.332-0.144 0.059-0.464 0.15-0.958 0.274-0.494 0.125-0.841 0.241-1.04 0.351-0.258 0.14-0.449 0.315-0.576 0.524-0.126 0.208-0.189 0.441-0.189 0.699 0 0.284 0.077 0.549 0.231 0.796 0.155 0.246 0.38 0.434 0.676 0.561 0.297 0.128 0.626 0.192 0.989 0.192 0.4 0 0.751-0.067 1.056-0.202 0.306-0.134 0.54-0.331 0.704-0.592 0.165-0.261 0.253-0.556 0.265-0.886l-0.683-0.053c-0.038 0.355-0.162 0.624-0.374 0.806s-0.525 0.273-0.938 0.273c-0.431 0-0.745-0.083-0.942-0.248s-0.296-0.363-0.296-0.596c0-0.202 0.07-0.369 0.209-0.499 0.138-0.13 0.496-0.265 1.075-0.401 0.579-0.137 0.976-0.257 1.192-0.359 0.313-0.15 0.544-0.341 0.694-0.573 0.149-0.23 0.224-0.497 0.224-0.798 0-0.299-0.082-0.581-0.246-0.846-0.164-0.264-0.399-0.469-0.706-0.616-0.308-0.147-0.653-0.22-1.037-0.22-0.487 0-0.895 0.073-1.224 0.222-0.328 0.147-0.587 0.37-0.774 0.668-0.187 0.297-0.286 0.633-0.295 1.009" fill="#445277"/></g><g id="g11768" transform="translate(188.7 499.96)"><path id="path11770" d="m0 0v2.381l-2.075 3.239h0.866l1.063-1.696c0.197-0.316 0.379-0.631 0.548-0.946 0.16 0.29 0.355 0.62 0.586 0.987l1.044 1.655h0.829l-2.148-3.239v-2.381h-0.713z" fill="#445277"/></g><g id="g11772" transform="translate(193.91 501.77)"><path id="path11774" d="m0 0 0.674 0.063c0.031-0.282 0.105-0.513 0.221-0.693 0.116-0.181 0.296-0.327 0.541-0.438 0.244-0.112 0.519-0.168 0.824-0.168 0.271 0 0.511 0.042 0.718 0.127 0.208 0.085 0.362 0.2 0.463 0.348 0.102 0.147 0.153 0.308 0.153 0.481 0 0.177-0.05 0.331-0.147 0.462-0.097 0.132-0.258 0.242-0.484 0.332-0.144 0.059-0.464 0.15-0.958 0.274-0.494 0.125-0.841 0.241-1.04 0.351-0.257 0.14-0.449 0.315-0.576 0.524-0.126 0.208-0.189 0.441-0.189 0.699 0 0.284 0.077 0.549 0.231 0.796 0.155 0.246 0.38 0.434 0.676 0.561 0.297 0.128 0.626 0.192 0.989 0.192 0.4 0 0.751-0.067 1.057-0.202 0.305-0.134 0.539-0.331 0.703-0.592 0.165-0.261 0.253-0.556 0.265-0.886l-0.683-0.053c-0.038 0.355-0.162 0.624-0.374 0.806-0.211 0.182-0.524 0.273-0.938 0.273-0.431 0-0.745-0.083-0.942-0.248s-0.296-0.363-0.296-0.596c0-0.202 0.07-0.369 0.209-0.499 0.138-0.13 0.496-0.265 1.075-0.401 0.579-0.137 0.976-0.257 1.192-0.359 0.313-0.15 0.544-0.341 0.694-0.573 0.15-0.23 0.224-0.497 0.224-0.798 0-0.299-0.082-0.581-0.246-0.846-0.164-0.264-0.399-0.469-0.706-0.616s-0.653-0.22-1.037-0.22c-0.487 0-0.895 0.073-1.224 0.222-0.328 0.147-0.587 0.37-0.774 0.668-0.187 0.297-0.286 0.633-0.295 1.009" fill="#445277"/></g><g id="g11776" transform="translate(202.48 499.96)"><path id="path11778" d="m0 0v4.956h-1.772v0.664h4.262v-0.664h-1.777v-4.956h-0.713z" fill="#445277"/></g><g id="g11780" transform="translate(207.68 499.96)"><path id="path11782" d="m0 0v5.62h3.886v-0.664h-3.174v-1.714h2.974v-0.664h-2.974v-1.914h3.301v-0.664h-4.013z" fill="#445277"/></g><g id="g11784" transform="translate(214.74 499.96)"><path id="path11786" d="m0 0v5.62h1.071l1.277-3.977c0.118-0.371 0.203-0.647 0.257-0.831 0.062 0.204 0.158 0.504 0.288 0.9l1.294 3.908h0.955v-5.62h-0.689v4.702l-1.565-4.702h-0.642l-1.557 4.785v-4.785h-0.689z" fill="#445277"/></g><g id="g11788" transform="translate(244.08 532.03)"><path id="path11790" d="m0 0c0-6.211-5.023-11.245-11.218-11.245s-11.216 5.034-11.216 11.245c0 6.21 5.021 11.244 11.216 11.244s11.218-5.034 11.218-11.244" fill-rule="evenodd" fill="#4dbd38"/></g><g id="g11792" transform="translate(173.1 517.77)"><path id="path11794" d="m0 0c-26.679-0.094-52.947-0.056-79.657-0.056-2.776 0-5.52-0.103-7.983 0-2.426 0.102-4.567 0.834-6.196 1.786-3.283 1.92-5.756 5.047-6.81 9.155-1.152 4.489 0.046 9.569 1.954 12.393 2.071 3.063 4.961 5.801 9.546 6.418 2.462 0.331 5.173 0.112 7.871 0.112h87.806c5.322 0 10.652-0.244 15.909 0 0.23 0.011 0.337 0.077 0.558 0.056 0.533-0.052-0.034-0.209-0.051-0.223-1.095-0.864-2.482-1.612-3.518-2.345-9.042-6.408-16.336-15.068-19.425-27.296" fill-rule="evenodd" fill="#445277"/></g><g id="g11796" transform="translate(89.371 538.81)"><path id="path11798" d="m0 0h-2.447v-16.691c-0.659 0.023-1.23 0.265-1.713 0.728-0.484 0.441-0.725 1.013-0.725 1.719v21.356h2.438v-4.674h2.447v-2.438z" fill="#fff"/></g><path id="path11800" d="m93.038 533h2.467v5.777h-2.467v-5.777zm-2.438 4.749c0 0.506 0.099 0.98 0.297 1.42 0.199 0.441 0.463 0.827 0.794 1.158 0.331 0.33 0.717 0.594 1.158 0.793 0.441 0.198 0.915 0.297 1.423 0.297 0.507 0 0.981-0.099 1.422-0.297s0.827-0.462 1.158-0.791c0.331-0.33 0.595-0.715 0.794-1.155s0.298-0.913 0.298-1.419v-7.193h-4.906v-5.806h2.468v2.447h2.438v-1.422c0-0.507-0.099-0.981-0.298-1.421s-0.463-0.826-0.794-1.156-0.717-0.595-1.158-0.792c-0.441-0.198-0.915-0.298-1.422-0.298-0.508 0-0.982 0.1-1.423 0.298s-0.827 0.463-1.158 0.793-0.595 0.716-0.794 1.157c-0.198 0.441-0.297 0.914-0.297 1.421v11.966z" fill="#fff"/><path id="path11802" d="m102.82 524.76h2.467v9.028h-2.467v-9.028zm4.906-2.438h-4.906c-0.681 0-1.257 0.236-1.729 0.709-0.473 0.474-0.709 1.052-0.709 1.734v9.017c0 0.682 0.236 1.26 0.709 1.734 0.472 0.473 1.048 0.71 1.729 0.71h2.468v2.583h-4.365v2.438h4.365c0.681 0 1.257-0.237 1.729-0.711 0.473-0.475 0.709-1.053 0.709-1.737v-16.477z" fill="#fff"/><g id="g11804" transform="translate(110.16 541.25)"><path id="path11806" d="m0 0h9.811c0.681 0 1.258-0.237 1.73-0.711 0.472-0.475 0.709-1.053 0.709-1.737v-16.477h-2.439v16.487h-2.467v-16.487h-2.439v16.487h-2.467v-16.487h-2.438v18.925z" fill="#fff"/></g><g id="g11808" transform="translate(129.45 538.78)"><path id="path11810" d="m0 0h-2.467v-5.777h2.467c0.681 0 1.257-0.237 1.73-0.711 0.472-0.474 0.708-1.053 0.708-1.737v-4.765c0-0.507-0.099-0.982-0.298-1.422-0.198-0.442-0.462-0.827-0.793-1.158s-0.717-0.596-1.158-0.794-0.916-0.298-1.422-0.298c-0.508 0-0.983 0.1-1.424 0.297-0.441 0.198-0.827 0.462-1.157 0.792-0.331 0.331-0.596 0.716-0.794 1.156-0.199 0.441-0.297 0.915-0.297 1.422v1.421h2.438v-2.447h2.467v5.806h-2.467c-0.681 0-1.258 0.236-1.73 0.71-0.473 0.472-0.708 1.05-0.708 1.732v4.752c0 0.506 0.098 0.979 0.297 1.418 0.198 0.441 0.463 0.825 0.794 1.155 0.33 0.33 0.716 0.594 1.157 0.792s0.916 0.297 1.424 0.297c0.506 0 0.981-0.099 1.422-0.297s0.827-0.462 1.158-0.792 0.595-0.716 0.793-1.156c0.199-0.441 0.298-0.914 0.298-1.421v-1.422h-2.438v2.447z" fill="#fff"/></g><path id="path11812" d="m136.46 524.76h2.466v14.049h-2.466v-14.049zm-2.439 16.487h4.905c0.681 0 1.258-0.237 1.73-0.711 0.472-0.475 0.709-1.053 0.709-1.737v-14.029c0-0.685-0.237-1.262-0.709-1.737s-1.049-0.711-1.73-0.711h-2.466v-4.615h-2.439v23.54z" fill="#fff"/><path id="path11814" d="m146.25 533h2.467v5.777h-2.467v-5.777zm-2.439 4.749c0 0.506 0.099 0.98 0.298 1.42 0.199 0.441 0.463 0.827 0.794 1.158 0.33 0.33 0.717 0.594 1.157 0.793 0.441 0.198 0.915 0.297 1.423 0.297 0.507 0 0.981-0.099 1.422-0.297s0.827-0.462 1.158-0.791c0.332-0.33 0.595-0.715 0.794-1.155 0.198-0.44 0.298-0.913 0.298-1.419v-7.193h-4.905v-5.806h2.466v2.447h2.439v-1.422c0-0.507-0.1-0.981-0.298-1.421-0.199-0.44-0.462-0.826-0.794-1.156-0.331-0.33-0.717-0.595-1.158-0.792-0.441-0.198-0.915-0.298-1.422-0.298-0.508 0-0.982 0.1-1.423 0.298-0.44 0.198-0.827 0.463-1.157 0.793-0.331 0.33-0.595 0.716-0.794 1.157s-0.298 0.914-0.298 1.421v11.966z" fill="#fff"/><path id="path11816" d="m156.03 524.76h2.468v9.028h-2.468v-9.028zm4.906-2.438h-4.906c-0.681 0-1.257 0.236-1.73 0.709-0.472 0.474-0.708 1.052-0.708 1.734v9.017c0 0.682 0.236 1.26 0.708 1.734 0.473 0.473 1.049 0.71 1.73 0.71h2.468v2.583h-4.365v2.438h4.365c0.68 0 1.258-0.237 1.73-0.711 0.472-0.475 0.708-1.053 0.708-1.737v-16.477z" fill="#fff"/><g id="g11818" transform="translate(163.37 545.92)"><path id="path11820" d="m0 0h2.439v-11.814h1.534c0.243 0 0.461 0.049 0.649 0.149 0.189 0.1 0.284 0.326 0.284 0.682v4.316c0 0.51 0.05 0.909 0.148 1.196 0.099 0.288 0.203 0.554 0.313 0.797l2.44-0.02c-0.11-0.243-0.216-0.507-0.314-0.794-0.099-0.287-0.149-0.684-0.149-1.191v-4.302c0-0.574-0.11-1.026-0.33-1.358-0.22-0.331-0.461-0.562-0.724-0.694 0.263-0.111 0.504-0.331 0.724-0.66 0.22-0.33 0.33-0.782 0.33-1.354v-6.571c0-0.506 0.05-0.903 0.149-1.188 0.098-0.287 0.204-0.551 0.314-0.793h-2.44c-0.11 0.242-0.214 0.506-0.313 0.793-0.098 0.285-0.148 0.682-0.148 1.188v6.573c0 0.176-0.062 0.347-0.183 0.512-0.124 0.165-0.374 0.259-0.75 0.281h-1.534v-9.347h-2.439v23.599z" fill="#fff"/></g></g></g><g id="g12172"><g id="g12174" clip-path="url(#clipPath12176)"><g id="g12180"><g id="g12182"><g id="g12184" clip-path="url(#clipPath12186)"><path id="path12196" fill="url(#linearGradient12190)" d="m423.48 321.4v-75.376c0-7.959 6.467-14.41 14.446-14.41h110.36c7.978 0 14.446 6.451 14.446 14.41v75.376h-139.26z"/></g></g></g></g></g><g id="g12210"><g id="g12212" clip-path="url(#clipPath12214)"><g id="g12218"><g id="g12220"><g id="g12222" clip-path="url(#clipPath12224)"><path id="path12234" fill="url(#linearGradient12228)" d="m437.92 335.81c-7.979 0-14.446-6.452-14.446-14.412h139.26c0 7.96-6.468 14.412-14.446 14.412h-110.36z"/></g></g></g></g></g><g id="g22665"><g id="g22667" clip-path="url(#clipPath22669)"><g id="g22673"><g id="g22675"><g id="g22677" clip-path="url(#clipPath22679)"><path id="path22689" fill="url(#linearGradient22683)" d="m423.48 209.99v-75.368c0-7.96 6.467-14.41 14.445-14.41h110.36c7.977 0 14.444 6.45 14.444 14.41v75.368h-139.24z"/></g></g></g></g></g><g id="g36663"><g id="g36665" clip-path="url(#clipPath36667)"><g id="g36671"><g id="g36673"><g id="g36675" clip-path="url(#clipPath36677)"><path id="path36687" fill="url(#linearGradient36681)" d="m437.92 224.4c-7.978 0-14.445-6.453-14.445-14.41h139.24c0 7.957-6.467 14.41-14.444 14.41h-110.36z"/></g></g></g></g></g></g></svg>
